<svg width="2061" height="371" viewBox="0 0 2061 371" xmlns="http://www.w3.org/2000/svg">
<rect x="0" y="0" width="2060" height="119" style="stroke:black;fill:#e0f2f1"></rect>
<text x="15" y="59" transform="rotate(90 15 59)" text-anchor="middle" class="svg-label">applicant</text>
<rect x="0" y="119" width="2060" height="119" style="stroke:black;fill:#e0f2f1"></rect>
<text x="15" y="178" transform="rotate(90 15 178)" text-anchor="middle" class="svg-label">system</text>
<rect x="0" y="238" width="2060" height="119" style="stroke:black;fill:#e0f2f1"></rect>
<text x="15" y="297" transform="rotate(90 15 297)" text-anchor="middle" class="svg-label">caseworker</text>
<rect x="70" y="30" width="72" height="60" style="stroke:black;fill:white"></rect>
<text x="106" y="65" text-anchor="middle" class="svg-label">NemId</text>
<rect x="172" y="30" width="248" height="60" style="stroke:black;fill:white"></rect>
<text x="296" y="65" text-anchor="middle" class="svg-label">submit relevant information</text>
<line x1="142" y1="60" x2="172" y2="60" style="stroke:black"></line>
<polygon points="172,60 162,65 162,55" style="fill:black"></polygon>
<rect x="450" y="149" width="240" height="60" style="stroke:black;fill:white"></rect>
<text x="570" y="184" text-anchor="middle" class="svg-label">detect possible duplicates</text>
<line x1="296" y1="90" x2="296" y2="179" style="stroke:black"></line>
<line x1="296" y1="179" x2="450" y2="179" style="stroke:black"></line>
<polygon points="450,179 440,184 440,174" style="fill:black"></polygon>
<rect x="720" y="149" width="376" height="60" style="stroke:black;fill:white"></rect>
<text x="908" y="184" text-anchor="middle" class="svg-label">system assigns case to available caseworker</text>
<line x1="690" y1="179" x2="720" y2="179" style="stroke:black"></line>
<polygon points="720,179 710,184 710,174" style="fill:black"></polygon>
<rect x="1126" y="268" width="72" height="60" style="stroke:black;fill:white"></rect>
<text x="1162" y="303" text-anchor="middle" class="svg-label">login</text>
<line x1="908" y1="209" x2="908" y2="298" style="stroke:black"></line>
<line x1="908" y1="298" x2="1126" y2="298" style="stroke:black"></line>
<polygon points="1126,298 1116,303 1116,293" style="fill:black"></polygon>
<rect x="1228" y="268" width="168" height="60" style="stroke:black;fill:white"></rect>
<text x="1312" y="303" text-anchor="middle" class="svg-label">processing a case</text>
<line x1="1198" y1="298" x2="1228" y2="298" style="stroke:black"></line>
<polygon points="1228,298 1218,303 1218,293" style="fill:black"></polygon>
<rect x="1426" y="268" width="80" height="60" style="stroke:black;fill:white"></rect>
<text x="1466" y="303" text-anchor="middle" class="svg-label">reject</text>
<line x1="1396" y1="298" x2="1426" y2="298" style="stroke:black"></line>
<polygon points="1426,298 1416,303 1416,293" style="fill:black"></polygon>
<rect x="1536" y="149" width="376" height="60" style="stroke:black;fill:white"></rect>
<text x="1724" y="184" text-anchor="middle" class="svg-label">informs the applicant of the final decision</text>
<line x1="1466" y1="268" x2="1466" y2="179" style="stroke:black"></line>
<line x1="1466" y1="179" x2="1536" y2="179" style="stroke:black"></line>
<polygon points="1536,179 1526,184 1526,174" style="fill:black"></polygon>
<rect x="1942" y="149" width="88" height="60" style="stroke:black;fill:white"></rect>
<text x="1986" y="184" text-anchor="middle" class="svg-label">archive</text>
<line x1="1912" y1="179" x2="1942" y2="179" style="stroke:black"></line>
<polygon points="1942,179 1932,184 1932,174" style="fill:black"></polygon>
<line x1="40" y1="0" x2="40" y2="357" style="stroke:black"></line>
</svg>
