<svg width="3203" height="371" viewBox="0 0 3203 371" xmlns="http://www.w3.org/2000/svg">
<rect x="0" y="0" width="3202" height="119" style="stroke:black;fill:#e0f2f1"></rect>
<text x="15" y="59" transform="rotate(90 15 59)" text-anchor="middle" class="svg-label">applicant</text>
<rect x="0" y="119" width="3202" height="119" style="stroke:black;fill:#e0f2f1"></rect>
<text x="15" y="178" transform="rotate(90 15 178)" text-anchor="middle" class="svg-label">system</text>
<rect x="0" y="238" width="3202" height="119" style="stroke:black;fill:#e0f2f1"></rect>
<text x="15" y="297" transform="rotate(90 15 297)" text-anchor="middle" class="svg-label">caseworker</text>
<rect x="70" y="30" width="72" height="60" style="stroke:black;fill:white"></rect>
<text x="106" y="65" text-anchor="middle" class="svg-label">NemId</text>
<rect x="172" y="30" width="248" height="60" style="stroke:black;fill:white"></rect>
<text x="296" y="65" text-anchor="middle" class="svg-label">submit relevant information</text>
<line x1="142" y1="60" x2="172" y2="60" style="stroke:black"></line>
<polygon points="172,60 162,65 162,55" style="fill:black"></polygon>
<rect x="450" y="149" width="240" height="60" style="stroke:black;fill:white"></rect>
<text x="570" y="184" text-anchor="middle" class="svg-label">detect possible duplicates</text>
<line x1="296" y1="90" x2="296" y2="179" style="stroke:black"></line>
<line x1="296" y1="179" x2="450" y2="179" style="stroke:black"></line>
<polygon points="450,179 440,184 440,174" style="fill:black"></polygon>
<rect x="720" y="149" width="376" height="60" style="stroke:black;fill:white"></rect>
<text x="908" y="184" text-anchor="middle" class="svg-label">system assigns case to available caseworker</text>
<line x1="690" y1="179" x2="720" y2="179" style="stroke:black"></line>
<polygon points="720,179 710,184 710,174" style="fill:black"></polygon>
<rect x="1126" y="268" width="72" height="60" style="stroke:black;fill:white"></rect>
<text x="1162" y="303" text-anchor="middle" class="svg-label">login</text>
<line x1="908" y1="209" x2="908" y2="298" style="stroke:black"></line>
<line x1="908" y1="298" x2="1126" y2="298" style="stroke:black"></line>
<polygon points="1126,298 1116,303 1116,293" style="fill:black"></polygon>
<rect x="1228" y="268" width="168" height="60" style="stroke:black;fill:white"></rect>
<text x="1312" y="303" text-anchor="middle" class="svg-label">processing a case</text>
<line x1="1198" y1="298" x2="1228" y2="298" style="stroke:black"></line>
<polygon points="1228,298 1218,303 1218,293" style="fill:black"></polygon>
<rect x="1426" y="268" width="88" height="60" style="stroke:black;fill:white"></rect>
<text x="1470" y="303" text-anchor="middle" class="svg-label">on hold</text>
<line x1="1396" y1="298" x2="1426" y2="298" style="stroke:black"></line>
<polygon points="1426,298 1416,303 1416,293" style="fill:black"></polygon>
<rect x="1544" y="149" width="152" height="60" style="stroke:black;fill:white"></rect>
<text x="1620" y="184" text-anchor="middle" class="svg-label">sends an e-mail</text>
<line x1="1470" y1="268" x2="1470" y2="179" style="stroke:black"></line>
<line x1="1470" y1="179" x2="1544" y2="179" style="stroke:black"></line>
<polygon points="1544,179 1534,184 1534,174" style="fill:black"></polygon>
<rect x="1726" y="30" width="272" height="60" style="stroke:black;fill:white"></rect>
<text x="1862" y="65" text-anchor="middle" class="svg-label">submit the missing information</text>
<line x1="1620" y1="149" x2="1620" y2="60" style="stroke:black"></line>
<line x1="1620" y1="60" x2="1726" y2="60" style="stroke:black"></line>
<polygon points="1726,60 1716,65 1716,55" style="fill:black"></polygon>
<rect x="2028" y="268" width="104" height="60" style="stroke:black;fill:white"></rect>
<text x="2080" y="303" text-anchor="middle" class="svg-label">reprocess</text>
<line x1="1862" y1="90" x2="1862" y2="298" style="stroke:black"></line>
<line x1="1862" y1="298" x2="2028" y2="298" style="stroke:black"></line>
<polygon points="2028,298 2018,303 2018,293" style="fill:black"></polygon>
<rect x="2162" y="268" width="88" height="60" style="stroke:black;fill:white"></rect>
<text x="2206" y="303" text-anchor="middle" class="svg-label">approve</text>
<line x1="2132" y1="298" x2="2162" y2="298" style="stroke:black"></line>
<polygon points="2162,298 2152,303 2152,293" style="fill:black"></polygon>
<rect x="2280" y="149" width="368" height="60" style="stroke:black;fill:white"></rect>
<text x="2464" y="184" text-anchor="middle" class="svg-label">calculates the "loss of earnings" benefits</text>
<line x1="2206" y1="268" x2="2206" y2="179" style="stroke:black"></line>
<line x1="2206" y1="179" x2="2280" y2="179" style="stroke:black"></line>
<polygon points="2280,179 2270,184 2270,174" style="fill:black"></polygon>
<rect x="2678" y="149" width="376" height="60" style="stroke:black;fill:white"></rect>
<text x="2866" y="184" text-anchor="middle" class="svg-label">informs the applicant of the final decision</text>
<line x1="2648" y1="179" x2="2678" y2="179" style="stroke:black"></line>
<polygon points="2678,179 2668,184 2668,174" style="fill:black"></polygon>
<rect x="3084" y="149" width="88" height="60" style="stroke:black;fill:white"></rect>
<text x="3128" y="184" text-anchor="middle" class="svg-label">archive</text>
<line x1="3054" y1="179" x2="3084" y2="179" style="stroke:black"></line>
<polygon points="3084,179 3074,184 3074,174" style="fill:black"></polygon>
<line x1="40" y1="0" x2="40" y2="357" style="stroke:black"></line>
</svg>
